<svg width="128" height="145" viewBox="0 0 128 145" fill="none" xmlns="http://www.w3.org/2000/svg">
<g id="logo">
<path d="M60.4342 1.05601C59.7699 1.2339 58.7816 1.58967 58.2469 1.84842C57.7122 2.091 56.2216 2.89958 54.9255 3.64348C53.6293 4.38738 51.9281 5.29299 51.1504 5.7458C50.2106 6.27946 48.1854 7.46 46.3221 8.57584C44.0862 9.90192 37.8483 13.492 37.2651 13.8316C36.6818 14.1712 32.8419 16.4029 31.1082 17.4056C29.3746 18.4082 26.604 20.0092 24.9514 20.9472C23.2988 21.9013 19.7343 23.9551 17.0123 25.5076C14.2903 27.0601 10.499 29.2433 8.58717 30.3268C6.67531 31.4264 5.97861 31.9925 4.68244 32.9142C4.09916 33.3347 3.74271 33.7067 2.78678 34.4506C2.38172 34.7578 1.60402 35.4855 1.4582 35.6311C1.15036 35.9707 0 37.2159 0 38.3803C0 39.4314 0.0162022 104.28 0.243033 105.283C0.372651 105.897 0.712897 106.884 0.988334 107.466C1.26377 108.048 1.79844 108.921 2.1873 109.406C2.55995 109.891 3.38626 110.781 3.98574 111.363C4.60143 111.945 5.54115 112.705 6.07583 113.061C6.6105 113.417 8.1011 114.339 9.39728 115.099C10.6935 115.859 12.8321 117.088 14.1769 117.848C15.5055 118.592 17.2553 119.595 18.0655 120.08C18.8594 120.549 20.431 121.438 21.5489 122.069C22.6669 122.683 24.4167 123.718 25.4375 124.333C26.4582 124.963 28.8237 126.338 30.7032 127.405C32.5664 128.473 35.8555 130.381 37.9942 131.659C40.1329 132.92 42.871 134.521 44.07 135.2C45.269 135.896 47.1646 136.995 48.2826 137.626C49.4005 138.273 50.6319 138.968 51.0369 139.162C51.442 139.356 52.3493 139.906 53.0622 140.391C53.7751 140.86 55.3467 141.75 56.5457 142.364C57.7447 142.995 59.2353 143.658 59.8671 143.836C60.7907 144.127 61.4226 144.175 63.2696 144.175C64.9546 144.175 65.8782 144.095 66.8341 143.852C67.547 143.69 68.5839 143.367 69.1348 143.14C69.7019 142.898 71.0143 142.267 72.0512 141.717C73.1043 141.168 75.6805 139.744 77.7706 138.548C79.8607 137.351 82.7123 135.734 84.0894 134.958C85.4666 134.181 87.2165 133.179 87.978 132.742C88.7395 132.289 90.5217 131.254 91.9475 130.43C93.3733 129.605 94.7181 128.812 94.9449 128.651C95.1717 128.505 96.2573 127.842 97.3752 127.195C98.4932 126.548 101.037 125.061 103.046 123.912C105.055 122.748 108.117 121.001 109.851 120.031C111.585 119.045 113.561 117.945 114.226 117.573C114.89 117.185 116.089 116.506 116.899 116.037C117.693 115.568 119.524 114.533 120.949 113.724C122.375 112.932 123.995 111.961 124.546 111.573C125.113 111.185 125.875 110.474 126.231 110.005C126.604 109.552 127.041 108.889 127.203 108.549C127.382 108.226 127.625 107.498 127.754 106.932C127.949 106.14 127.997 104.603 127.997 99.299C127.997 93.9947 127.997 92.3775 127.997 91.5366C127.997 90.7119 127.997 87.5099 127.997 86.5396C127.997 85.5207 127.997 82.7716 127.997 82.1894C127.997 81.1382 127.9 80.831 127.965 74.3946C128.014 68.7022 127.997 67.4408 127.997 66.4381C127.997 65.8075 127.997 61.7969 127.997 61.716C127.997 61.619 127.997 57.851 127.997 56.9777C127.997 55.8457 127.997 55.1341 127.997 49.0859C127.997 43.539 127.997 42.0189 127.997 41.2588C127.997 40.6605 127.997 39.3182 127.997 38.3803C127.916 37.1836 127.414 36.6176 127.041 36.1001C126.604 35.5017 126.069 35.0004 125.259 34.208C124.579 33.5449 123.364 32.607 122.553 32.1218C121.76 31.6367 120.35 30.8281 119.41 30.3268C118.471 29.8093 116.866 28.9198 115.846 28.3377C114.825 27.7555 113.756 27.1409 113.496 26.9954C113.221 26.8337 112.249 26.2677 111.309 25.7178C110.369 25.1842 108.215 23.939 106.529 22.9848C104.828 22.0145 102.285 20.5591 100.859 19.7667C99.4329 18.9581 97.4239 17.8261 96.4031 17.2277C95.3824 16.6293 94.0214 15.8531 93.4057 15.4812C92.7738 15.1254 90.4407 13.7831 88.221 12.4894C85.9851 11.1957 82.8581 9.38443 81.2541 8.46264C79.65 7.52469 77.6734 6.3765 76.8795 5.87517C76.0693 5.37385 74.9838 4.75932 74.4491 4.48441C73.9145 4.22566 72.9585 3.67582 72.3428 3.2877C71.711 2.88341 70.7712 2.33357 70.2366 2.05865C69.7019 1.79991 68.7459 1.42796 68.1303 1.2339C67.2391 0.958978 66.6073 0.732574 64.3227 0.732574C63.3344 0.732574 61.5036 0.764918 60.4342 1.05601Z" fill="white"/>
<path d="M5.93016 41.3555C5.67093 41.7274 5.65473 43.7165 5.70333 72.7124L5.75194 103.665C6.2218 105.395 6.86989 106.155 7.71241 106.98C8.70074 107.95 9.77009 108.387 12.0708 109.746C13.6748 110.684 16.0727 112.074 17.4175 112.834C18.7461 113.594 20.4959 114.581 21.3061 115.066C22.1 115.535 23.6716 116.424 24.7895 117.055C25.9075 117.67 27.6573 118.705 28.6781 119.319C29.6988 119.934 30.7843 120.581 31.0598 120.742C31.3514 120.92 31.8375 121.179 32.1129 121.357C32.4046 121.519 33.5387 122.165 34.6243 122.812C35.726 123.443 36.6495 123.96 36.6982 123.96C36.7468 123.96 38.5776 125.044 40.7811 126.354C43.0008 127.664 45.8524 129.362 47.1486 130.106C48.4447 130.85 50.4052 131.982 51.5232 132.612C52.6411 133.259 53.9049 133.971 54.3586 134.197C54.796 134.424 55.7843 135.022 56.5459 135.523C57.3074 136.008 58.8142 136.882 59.9159 137.431C61.7792 138.353 61.9736 138.483 63.0915 138.515L63.8368 138.499V123.006C63.1401 122.99 60.9042 122.149 60.5964 121.971C60.2886 121.793 59.9159 121.551 59.7863 121.454C59.6567 121.341 59.0734 121.001 58.4901 120.694C57.9068 120.37 57.0643 119.918 56.6269 119.675C56.1732 119.432 54.8284 118.624 53.6295 117.88C52.4305 117.136 51.3936 116.521 51.3125 116.521C51.2477 116.521 51.0047 116.392 50.7455 116.214C50.5024 116.053 49.6113 115.519 48.7688 115.034C47.9263 114.532 46.6463 113.837 45.9334 113.449C45.2205 113.077 44.2322 112.527 43.7461 112.236C43.26 111.961 41.4616 110.926 39.7766 109.94C38.0753 108.953 35.8556 107.659 34.8349 107.061C33.8142 106.463 32.599 105.783 32.1615 105.541C31.7079 105.298 30.6223 104.684 29.7312 104.15C28.8401 103.633 27.1226 102.63 25.9237 101.918C24.7247 101.207 23.2665 100.317 22.6832 99.9455C22.1 99.5736 21.4357 99.0237 21.2088 98.7165C20.982 98.4092 20.577 97.7623 20.3339 97.2772C20.0909 96.792 19.783 95.9188 19.6696 95.3366C19.54 94.7544 19.4428 93.2989 19.4428 92.0537C19.4428 90.291 19.4914 89.7897 19.6858 89.5956C19.8317 89.4501 20.0423 89.4016 20.2043 89.4662C20.3663 89.5148 21.144 89.9514 21.9541 90.4042C22.7481 90.8732 24.3521 91.795 25.5186 92.458C26.669 93.1211 28.4188 94.1237 29.4072 94.6897C30.3793 95.2557 31.481 95.8864 31.8375 96.1128C32.1939 96.3392 33.1823 96.8891 34.0248 97.3257C34.8673 97.7785 36.2121 98.5547 37.0222 99.0561C37.8161 99.5574 38.5938 100.01 38.7234 100.059C38.853 100.107 40.0196 100.786 41.3158 101.563C42.612 102.339 44.135 103.245 44.7182 103.552C45.3015 103.875 46.6463 104.651 47.7156 105.282C48.785 105.913 50.2108 106.754 50.8751 107.126C51.5394 107.498 52.9976 108.355 54.1155 109.002C55.2335 109.665 57.2263 110.829 58.5711 111.573C59.8997 112.333 61.4065 113.109 61.8926 113.287C62.3786 113.465 63.0429 113.465 63.3022 113.465C63.5452 113.465 63.5938 113.481 63.8368 113.465C63.8368 113.061 63.8368 97.9564 63.8368 97.9564C62.2652 97.6976 61.8278 97.358 61.2445 97.0669C60.6612 96.7759 58.2957 95.4659 55.9788 94.1399C53.6619 92.8138 51.2153 91.3745 50.551 90.954C49.8867 90.5498 48.6716 89.8382 47.8777 89.4016C47.0676 88.9488 45.9496 88.3181 45.3663 87.9785C44.783 87.655 43.9081 87.1537 43.4221 86.895C42.936 86.62 41.5102 85.8114 40.2626 85.0999C39.0151 84.3883 37.6217 83.6121 37.1842 83.3695C36.7306 83.1269 36.1959 82.8359 35.9691 82.7065C35.7422 82.5771 35.4506 82.3992 35.321 82.3022C35.1913 82.2052 34.6081 81.8656 34.0248 81.5421C33.4415 81.2349 32.0643 80.4424 30.9464 79.7956C29.8284 79.1487 28.192 78.2107 27.3009 77.7094C26.4097 77.2081 24.7247 76.1731 23.5744 75.413C22.2458 74.5398 21.3061 73.7797 21.0306 73.3916C20.7876 73.052 20.4149 72.3728 20.1881 71.8876C19.9613 71.4025 19.6696 70.4645 19.5238 69.8176C19.3942 69.1869 19.2808 67.9902 19.2808 67.1978C19.2808 66.3892 19.3456 65.5645 19.4428 65.3381C19.5238 65.1117 19.7344 64.8853 19.8803 64.8368C20.0585 64.7721 20.7228 65.0147 21.6301 65.4998C22.424 65.9203 23.6716 66.5995 24.3845 67.0038C25.0974 67.4081 26.3935 68.1681 27.2523 68.6856C28.1272 69.2031 28.8725 69.6236 28.9211 69.6236C28.9697 69.6236 29.3099 69.8176 29.6826 70.0602C30.0714 70.2866 31.1732 70.9658 32.1615 71.5318C33.1337 72.114 34.4136 72.8417 34.9969 73.149C35.5802 73.4563 36.3741 73.9091 36.7792 74.1517C37.1842 74.3942 38.3832 75.1058 39.4525 75.7365C40.5219 76.351 42.3365 77.4183 43.5031 78.0814C44.6534 78.7444 46.9217 80.0705 48.5258 81.0246C50.1298 81.9788 52.3495 83.321 53.4674 83.984C54.5854 84.6471 55.7033 85.3263 55.9788 85.4718C56.238 85.6336 56.9347 86.0379 57.518 86.3936C58.1013 86.7494 59.2192 87.3639 60.0293 87.7682C60.8232 88.1725 61.4875 88.5606 61.9898 88.7224C62.2652 88.8032 62.4597 88.8679 62.8647 88.8679C63.2212 88.8679 63.8368 88.8679 63.8368 88.8679V72.8903C63.1401 72.8903 62.8809 72.7124 62.2166 72.5507C61.5523 72.3889 60.7422 72.0979 60.4344 71.9361C60.1265 71.7582 58.9924 71.1599 57.923 70.5939C56.8537 70.0279 55.5089 69.284 54.9256 68.9282C54.3424 68.5724 53.1758 67.877 52.3333 67.3757C51.4908 66.8582 49.6275 65.7747 48.2017 64.95C46.7759 64.1414 45.4635 63.3813 45.2853 63.2681C45.1071 63.1549 44.783 62.9608 44.5562 62.8153C44.3294 62.6698 43.4869 62.2008 42.693 61.7803C41.8829 61.3598 40.1816 60.3895 38.8854 59.6295C37.5893 58.8694 36.2445 58.0932 35.888 57.9153C35.5316 57.7212 34.4298 57.0905 33.4577 56.5407C32.4694 55.9747 31.1246 55.1823 30.4603 54.7618C29.796 54.3575 28.4836 53.6298 27.5439 53.1285C26.6042 52.6271 24.3521 51.3496 22.5212 50.2822C20.6904 49.1987 18.9081 48.1476 18.5517 47.9212C18.1952 47.7109 17.2393 47.1773 16.4454 46.7406C15.6353 46.3202 14.5821 45.7057 14.0961 45.3822C13.5938 45.0588 13.0591 44.7192 12.8809 44.606C12.7027 44.4928 11.6495 43.8782 10.5316 43.2476C9.41364 42.6007 8.19847 41.873 7.80962 41.6142C7.43697 41.3716 6.9185 41.1129 6.67546 41.0644C6.30281 40.9835 6.157 41.0482 5.93016 41.3555Z" fill="#006494"/>
<path d="M62.2486 6.65165C61.7949 6.78102 61.163 6.99126 60.8714 7.1368C60.596 7.29852 59.3322 7.9939 58.0846 8.70546C56.837 9.43318 55.2006 10.3388 54.4391 10.7269C53.6776 11.115 52.9323 11.5517 52.7703 11.6972C52.6083 11.8428 52.4786 12.0692 52.4948 12.1662C52.4948 12.2794 52.7379 12.5705 53.0133 12.7969C53.305 13.0233 53.9854 13.4438 54.5201 13.7349C55.0548 14.0421 56.6588 14.9477 58.0846 15.7725C59.5104 16.5972 61.001 17.4543 61.4061 17.6807C61.8111 17.9072 62.8319 18.4893 63.6744 18.9745C64.5169 19.4596 65.5052 20.0256 65.8617 20.2359C66.2181 20.4299 67.2389 21.0121 68.13 21.5134C69.0211 22.0309 70.0094 22.5808 70.3173 22.7587C70.6251 22.9365 71.3542 23.357 71.9375 23.6966C72.5208 24.0201 74.7081 25.2814 76.7982 26.4781C78.8882 27.6749 81.0107 28.8877 81.4968 29.1465C81.9829 29.4214 83.2304 30.133 84.2512 30.7151C85.2719 31.3135 86.1306 31.7825 86.1468 31.7825C86.1792 31.7825 86.4709 31.9604 86.7949 32.1544C87.1352 32.3646 87.7346 32.7204 88.1397 32.9468C88.5448 33.1732 89.7113 33.8201 90.7321 34.4023C91.7528 34.9683 93.3892 35.9062 94.3776 36.4561C95.3497 37.0221 96.8403 37.863 97.6504 38.3482C98.4767 38.8333 98.5901 38.8818 98.5901 39.1406C98.5901 39.3346 98.1689 39.6096 97.7638 39.8198C97.3264 40.0462 91.2505 43.0865 89.5817 43.6363C87.0056 44.4611 84.0405 42.1809 83.6517 41.9706C83.4087 41.8413 82.0963 41.1135 80.7677 40.3373C79.4229 39.5772 77.3814 38.4129 76.2311 37.7336C75.0645 37.0706 72.8772 35.8092 71.3704 34.9359C69.8474 34.0627 68.4702 33.2703 68.292 33.1732C68.1138 33.0762 67.7897 32.866 67.5629 32.7366C67.3361 32.591 66.7528 32.2514 66.2667 31.9927C65.7807 31.7178 64.9705 31.265 64.4845 30.9739C63.9984 30.6828 62.7832 29.9874 61.8111 29.4376C60.8228 28.8877 59.0405 27.8689 57.8416 27.1735C56.6426 26.4943 55.3302 25.7343 54.9252 25.5078C54.5201 25.2814 53.9206 24.9257 53.5804 24.7154C53.2564 24.5214 52.9485 24.3435 52.8999 24.3435C52.8513 24.3435 51.9602 23.826 50.907 23.2115C49.8701 22.5808 48.9952 22.0794 48.9628 22.0794C48.9466 22.0794 47.9582 21.5296 46.7755 20.8504C45.6089 20.1712 44.1183 19.3303 43.5026 18.9907C42.8707 18.651 42.174 18.36 41.9148 18.36C41.6718 18.36 41.3153 18.4246 41.1047 18.5217C40.9103 18.6025 40.0353 19.1039 39.1766 19.6052C38.3017 20.1227 36.1468 21.3841 34.397 22.4029C32.6309 23.4217 29.8442 25.0227 28.1915 25.9607C26.5389 26.9148 22.6828 29.1303 19.6044 30.893C16.526 32.6557 13.8202 34.2244 13.5609 34.3861C13.3179 34.564 13.0911 34.6934 13.0425 34.6934C12.9939 34.6934 11.9245 35.2917 10.6446 36.0195C9.38078 36.731 8.21422 37.4426 8.0522 37.5881C7.89018 37.7336 7.76056 38.0086 7.77676 38.2026C7.77676 38.429 7.97119 38.7201 8.29523 38.9304C8.57067 39.1406 9.00813 39.4155 9.25116 39.5449C9.4942 39.6743 10.0451 39.9815 10.4825 40.2079C10.9038 40.4343 12.1352 41.1135 13.2045 41.7281C14.2738 42.3264 15.3594 42.9733 15.6348 43.1835C15.8941 43.3776 17.2064 44.1538 18.5512 44.9139C19.8798 45.674 21.338 46.4987 21.7917 46.7575C22.2291 47 23.2985 47.5984 24.141 48.0835C24.9835 48.5849 25.826 49.0538 26.0042 49.1509C26.1825 49.2479 27.349 49.9109 28.5966 50.6063C29.8442 51.3179 31.4968 52.272 32.2745 52.7572C33.0684 53.2261 34.2674 53.9215 34.9479 54.2773C35.6446 54.6492 36.325 55.0374 36.4547 55.1344C36.5843 55.2314 36.8759 55.4093 37.1028 55.5387C37.3296 55.6681 38.6744 56.4281 40.1002 57.2529C41.526 58.0615 43.6808 59.3067 44.8798 60.0021C46.0788 60.6975 47.4722 61.4899 47.9582 61.7486C48.4443 62.0235 51.6199 63.8833 55.0062 65.9047C58.3924 67.9262 61.8111 69.9477 62.6212 70.4005C63.4151 70.8694 64.209 71.2414 64.3549 71.2414C64.5169 71.2414 64.8085 71.1605 65.003 71.0635C65.2136 70.9503 66.1047 70.4005 66.9958 69.8183C67.8869 69.2523 68.8753 68.6054 69.1831 68.4114C69.491 68.2011 70.4469 67.6189 71.2894 67.1014C72.1319 66.5678 72.9582 66.0665 73.1041 65.9856C73.2499 65.8886 73.7197 65.6137 74.1572 65.3549C74.5785 65.0962 75.1779 64.6919 75.4696 64.4655C75.7612 64.2391 76.0042 63.9641 75.988 63.8833C75.988 63.7862 75.7774 63.5275 75.5344 63.2688C75.2914 63.0262 75.0483 62.8321 74.9673 62.8321C74.9025 62.8321 74.4002 62.5572 73.8332 62.2014C73.2823 61.8618 71.9213 61.0694 70.8033 60.4549C69.6854 59.8242 68.5188 59.1773 68.211 58.9833C67.9031 58.8054 66.9472 58.2717 66.1047 57.7865C65.2622 57.3014 63.5772 56.3311 62.3782 55.6357C61.1792 54.9403 59.8669 54.1964 59.4618 53.97C59.0567 53.7436 58.4573 53.3878 58.117 53.1776C57.793 52.9836 57.4851 52.8057 57.4365 52.8057C57.3879 52.8057 56.8856 52.5146 56.3024 52.1588C55.7191 51.803 55.2168 51.5119 55.1682 51.5119C55.1196 51.5119 54.8118 51.334 54.4715 51.14C54.1475 50.9298 53.548 50.574 53.1429 50.3476C52.7379 50.1212 51.7495 49.5552 50.9556 49.0862C50.1455 48.6172 49.2058 48.0674 48.8493 47.8733C48.4929 47.6631 47.4722 47.0809 46.581 46.5796C45.6899 46.0621 44.5234 45.4152 43.9887 45.1241C43.454 44.833 42.4333 44.2508 41.7204 43.8304C41.0075 43.3937 39.9543 42.7954 39.3711 42.4881C38.7878 42.1647 37.2648 41.2752 35.9686 40.499C34.6724 39.7389 33.6031 39.0274 33.5707 38.9627C33.5545 38.8818 33.8137 38.6716 34.1377 38.4937C34.478 38.332 34.9317 38.0571 35.1585 37.9115C35.3853 37.766 36.3088 37.2485 37.2324 36.7795C38.1559 36.2944 39.2414 35.7284 39.6627 35.502C40.3594 35.13 41.6556 34.5155 42.6763 34.5317L44.4262 34.8389C46.8079 36.068 48.3471 36.9736 48.9304 37.3294C49.5136 37.6851 50.2427 38.1218 50.5506 38.2997C50.8584 38.4775 51.3121 38.7363 51.5551 38.8818C51.7982 39.0274 53.6938 40.1109 55.7677 41.3076C57.8416 42.5043 60.2719 43.9112 61.163 44.4449C62.0541 44.9786 63.0425 45.5607 63.3503 45.7386C63.6582 45.9165 64.3873 46.337 64.9705 46.6604C65.5538 46.9839 66.2829 47.4043 66.5908 47.5822C66.8986 47.7601 68.8267 48.8759 70.8844 50.0565C72.9258 51.237 75.7774 52.8704 77.2032 53.6951C78.629 54.5199 80.5895 55.6034 81.5778 56.1209C82.7444 56.7354 83.7489 57.1397 84.4942 57.2852C85.1099 57.4146 85.92 57.4631 86.2764 57.4146C86.6329 57.3661 87.2486 57.2367 87.6536 57.1397C88.0587 57.0426 88.561 56.8324 88.7878 56.703C88.9984 56.5575 89.3873 56.3311 89.6465 56.2017C89.8895 56.0723 91.0561 55.3931 92.2389 54.6978C93.4216 53.9862 94.5558 53.2908 94.7826 53.1291C95.0094 52.9836 95.7709 52.5631 96.4838 52.2073C97.1967 51.8515 98.1365 51.3664 98.5901 51.1076C99.0276 50.8489 99.5137 50.5578 99.6433 50.4608C99.7729 50.3476 100.291 50.0403 100.777 49.7816C101.263 49.5066 102.689 48.6981 103.937 47.9703C105.184 47.2426 106.319 46.5796 106.448 46.4987C106.578 46.4178 107.566 45.8518 108.635 45.2535C109.705 44.639 111.487 43.6201 112.605 42.9894C113.723 42.3588 115.068 41.5987 115.602 41.3076C116.137 41.0165 117.142 40.499 117.822 40.1594C118.729 39.7228 119.216 39.5449 119.685 39.3185C120.026 39.1406 120.755 38.8333 120.755 38.3805C120.739 37.8468 120.009 37.5719 119.248 37.1191C118.486 36.6501 117.174 35.9062 116.332 35.4534C115.489 35.0168 114.614 34.5317 114.387 34.3861C114.16 34.2406 113.836 34.0303 113.658 33.9333C113.48 33.8201 113.075 33.5937 112.767 33.432C112.459 33.2703 111.763 32.8821 111.228 32.591C110.693 32.3 110.142 31.9765 110.013 31.8633C109.883 31.7501 109.186 31.3458 108.473 30.9415C107.761 30.5372 105.752 29.4052 104.018 28.4026C102.284 27.4161 100.842 26.6075 100.81 26.6075C100.794 26.6075 99.9187 26.1062 98.8656 25.4917C97.8286 24.8933 95.9654 23.8098 94.7178 23.1144C93.4864 22.4191 92.2875 21.7237 92.0444 21.5943C91.8176 21.4649 91.0561 21.0283 90.3594 20.624C89.6627 20.2197 88.8526 19.7507 88.5448 19.5728C88.2531 19.3949 86.4061 18.3276 84.4618 17.2118C82.5175 16.0797 79.6173 14.3979 78.0133 13.4761C76.4093 12.5543 74.5136 11.4223 73.8008 10.9857C73.0879 10.549 71.9861 9.91833 71.3704 9.5949C70.7385 9.27147 69.572 8.59225 68.7781 8.09093C67.968 7.60578 66.9472 7.05594 66.5098 6.89423C66.0561 6.73251 65.1164 6.55462 64.4035 6.52228C63.561 6.45759 62.7995 6.50611 62.2486 6.65165Z" fill="#29384A"/>
<path d="M118.437 42.6806C117.417 43.2304 115.91 44.0875 115.116 44.5565C114.306 45.0255 113.463 45.543 113.204 45.7047C112.961 45.8826 112.734 46.012 112.686 46.012C112.637 46.012 112.41 46.1575 112.151 46.3192C111.908 46.4809 110.579 47.2734 109.202 48.0658C107.825 48.8582 105.994 49.877 105.152 50.3298C104.309 50.7665 102.413 51.8499 100.939 52.7232C99.4646 53.5965 97.3907 54.8255 96.3214 55.4724C95.252 56.1031 93.648 57.0572 92.7569 57.5747C91.8657 58.0922 90.8126 58.7067 90.4075 58.9493C90.0025 59.1919 88.042 60.3401 86.033 61.5044C84.0239 62.6526 81.6422 64.0111 80.7186 64.5124C79.8113 65.0137 79.0336 65.418 78.985 65.418C78.9364 65.418 78.3693 65.7253 77.7212 66.1134C77.0893 66.5015 76.2306 67.0028 75.8256 67.2292C75.4205 67.4556 74.7724 67.8276 74.3674 68.0378C73.9623 68.2642 73.2332 68.6685 72.7471 68.9273C72.2611 69.2022 71.3376 69.6873 70.7219 70.0269C70.09 70.3665 68.972 71.0134 68.2105 71.45C67.449 71.9028 66.2663 72.4203 65.845 72.5821C65.4238 72.7438 64.8243 72.857 64.565 72.857L63.8359 72.8731V88.8508C64.9701 88.8346 65.9584 88.4788 66.4607 88.2524C66.963 88.0099 68.2429 87.3145 69.3933 86.6676C70.5598 86.0207 71.7102 85.3092 71.937 85.1636C72.1639 85.0019 73.5411 84.1933 75.0155 83.3686C76.4899 82.5438 79.0012 81.1045 80.6052 80.1666C82.2092 79.2286 84.3155 77.9996 85.3039 77.4174C86.276 76.8352 87.4912 76.1398 87.9772 75.8811C88.4633 75.6062 89.5974 74.9593 90.4886 74.4256C91.3797 73.892 92.7245 73.1319 93.486 72.7276C94.2475 72.3233 95.7381 71.4824 96.8074 70.8679C97.8768 70.2533 100.064 68.9596 101.668 68.0055C103.272 67.0513 106.334 65.2563 108.473 64.0434C110.612 62.8144 113.706 61.0516 115.359 60.1137C117.012 59.1757 118.907 58.0761 119.572 57.6718C120.236 57.2675 121.062 56.6853 121.402 56.3619C121.856 55.9414 122.05 55.5856 122.164 55.0196C122.261 54.5991 122.326 51.9146 122.326 49.0361C122.326 46.1737 122.245 43.5377 122.164 43.1819C122.083 42.8261 122.002 42.244 121.743 42.0176C121.5 41.7912 120.932 41.6456 120.706 41.6456C120.479 41.6456 119.458 42.1146 118.437 42.6806ZM119.653 67.0837C119.296 67.1969 118.389 67.6335 117.627 68.0378C116.866 68.4421 115.667 69.1051 114.954 69.4933C114.241 69.8976 113.22 70.4797 112.686 70.787C112.151 71.0943 110.466 72.0807 108.959 72.9702C107.436 73.8596 105.152 75.1857 103.855 75.9296C102.559 76.6735 100.55 77.8379 99.3998 78.5171C98.2332 79.1963 96.5968 80.1504 95.7543 80.6194C94.9118 81.1045 93.1133 82.1233 91.7847 82.8996C90.44 83.6758 87.4587 85.4062 85.1418 86.7646C82.8249 88.123 80.4594 89.5462 79.8761 89.9181C79.2928 90.2901 78.5637 90.7267 78.2559 90.8722C77.9481 91.034 76.9921 91.5676 76.1496 92.0528C75.3071 92.5541 73.9461 93.3303 73.1522 93.8155C72.3421 94.2845 70.7057 95.2063 69.5067 95.8531C68.3077 96.5 66.9144 97.2115 66.4283 97.4056C65.9422 97.6158 65.2617 97.8261 64.9215 97.8907L63.8359 97.9231C63.8359 109.777 63.8359 113.286 63.8359 113.432C65.0025 113.432 65.2779 113.302 65.845 113.06C66.4283 112.785 67.7407 112.122 68.8586 111.507C69.9766 110.909 71.2403 110.214 71.694 109.971C72.1315 109.728 73.2008 109.098 74.0433 108.596C74.8858 108.079 77.1541 106.769 79.066 105.686C80.9779 104.586 83.7484 102.985 85.2228 102.128C86.6972 101.254 89.1276 99.8314 90.6506 98.9743C92.1574 98.101 93.7128 97.2115 94.0854 97.0013C94.4743 96.8072 95.09 96.4515 95.4626 96.2412C95.8515 96.031 97.0342 95.3518 98.1036 94.7373C99.1729 94.1066 100.453 93.3627 100.939 93.0716C101.425 92.7805 102.041 92.4085 102.316 92.263C102.575 92.1013 103.434 91.6 104.212 91.1471C105.006 90.6943 105.67 90.3224 105.719 90.3224C105.767 90.3224 107.128 89.5623 108.748 88.6405C110.385 87.7026 112.443 86.5382 113.334 86.0207C114.225 85.5194 115.845 84.5814 116.931 83.9508C118.032 83.3201 119.491 82.4306 120.171 81.994C120.851 81.5412 121.548 81.0075 121.71 80.7811C121.888 80.5547 122.083 79.8431 122.18 79.1639C122.277 78.4524 122.326 75.8649 122.293 72.9863L122.245 68.0055C121.483 67.2616 121.046 67.0028 120.787 66.9705C120.511 66.922 120.009 66.9705 119.653 67.0837ZM119.328 92.3277C118.972 92.4571 118.324 92.7482 117.87 92.9907C117.433 93.2333 116.039 94.0257 114.792 94.7373C113.544 95.4488 111.827 96.4515 110.984 96.9528C110.142 97.4541 108.57 98.3759 107.501 99.0066C106.432 99.6373 104.244 100.883 102.64 101.804C101.036 102.71 99.1405 103.81 98.4276 104.23C97.7147 104.651 96.0297 105.637 94.7011 106.413C93.3564 107.189 91.5741 108.257 90.7316 108.774C89.8891 109.276 88.2851 110.23 87.1671 110.86C86.0492 111.507 84.7692 112.235 84.3317 112.494C83.8781 112.736 82.8249 113.335 81.9824 113.836C81.1399 114.321 78.7582 115.647 76.7167 116.779C74.659 117.895 72.9092 118.882 72.8282 118.962C72.7309 119.027 71.7102 119.609 70.5599 120.256C69.3933 120.887 67.9837 121.647 67.4004 121.954C66.8171 122.245 65.3751 122.763 64.8081 122.925L63.8359 123.005C63.8359 138.174 63.8359 137.948 63.8359 138.482C65.2293 138.514 65.4886 138.304 65.8936 138.142C66.2177 138.013 67.3842 137.398 68.4536 136.865C69.5229 136.331 72.0018 134.972 73.9623 133.857C75.9228 132.757 78.0615 131.528 78.6934 131.14C79.3414 130.752 79.9085 130.428 79.9571 130.428C80.0057 130.428 81.3991 129.636 83.068 128.682C84.753 127.711 87.2805 126.24 88.7063 125.415C90.1321 124.59 91.4769 123.798 91.7037 123.636C91.9306 123.491 93.0161 122.827 94.1341 122.181C95.252 121.534 97.7958 120.046 99.8048 118.898C101.814 117.733 104.212 116.359 105.152 115.825C106.091 115.291 107.144 114.709 107.501 114.515C107.857 114.321 108.846 113.771 109.688 113.286C110.531 112.801 112.102 111.912 113.172 111.281C114.241 110.666 116.282 109.518 117.708 108.71C119.134 107.917 120.576 107.06 120.933 106.834C121.273 106.607 121.71 106.154 121.905 105.847C122.229 105.297 122.245 105.071 122.293 100.025C122.326 97.1307 122.293 94.3653 122.229 93.8802C122.148 93.201 122.018 92.8937 121.662 92.5379C121.305 92.2145 121.03 92.1013 120.576 92.1175C120.252 92.1175 119.685 92.2145 119.328 92.3277Z" fill="#214F64"/>
</g>
</svg>
